<?xml version="1.0" encoding="utf-8" standalone="yes"?>
<!DOCTYPE svg PUBLIC "-//W3C//DTD SVG 1.1//EN" "http://www.w3.org/Graphics/SVG/1.1/DTD/svg11.dtd">
<svg width="576" height="552" viewBox="0 0 576 552" style="fill:none;stroke:none;fill-rule:evenodd;clip-rule:evenodd;stroke-linecap:round;stroke-linejoin:round;stroke-miterlimit:1.5;" version="1.1" xmlns="http://www.w3.org/2000/svg" xmlns:xlink="http://www.w3.org/1999/xlink"><style class="text-font-style fontImports" data-font-family="Shantell Sans">@import url('https://fonts.googleapis.com/css2?family=Shantell+Sans:wght@300..800&amp;display=block');</style><g id="items" style="isolation: isolate"><g id="blend" style="mix-blend-mode: normal"><g id="g-root-1.g-1_fr_hyegnk168cr2b-fill" data-item-order="-259764" transform="translate(26, 198.7230224609375)"><g id="1.g-1_fr_hyegnk168cr2b-fill" stroke="none" fill="#d1f4ff"><g><path d="M 99.3 42.3L 100.3 46.3L 122.1 51.2L 118.7 37.5ZM 122.1 51.2L 138.7 30.6L 116.1 26.7L 100.3 46.3ZM 116.1 26.7L 131.7 71.1L 151.7 67.6L 138.7 30.6ZM 151.7 67.6L 151.5 9.9L 131.5 14.6L 131.7 71.1ZM 131.5 14.6L 152.1 56.2L 170 47.4L 151.5 9.9Z" fill-rule="nonzero"></path></g></g></g><g id="g-root-2.g-2_fr_4mxya8168csn9-fill" data-item-order="-259760" transform="translate(182.2030029296875, 161.7679443359375)"><g id="2.g-2_fr_4mxya8168csn9-fill" stroke="none" fill="#c8ffe5"><g><path d="M 172.5 148.5L 182.2 132.4L 167.8 117.6L 155.4 138.2ZM 167.8 117.6L 137.9 134.6L 153.9 148.5L 182.2 132.4ZM 153.9 148.5L 174.9 96.8L 158 85.4L 137.9 134.6ZM 158 85.4L 112 130.3L 128.2 142.5L 174.9 96.8ZM 128.2 142.5L 182.5 40.1L 165.8 28.8L 112 130.3ZM 165.8 28.8L 88.3 120.7L 105.2 131.8L 182.5 40.1ZM 105.2 131.8L 160.2 20.8L 142.8 10.8L 88.3 120.7ZM 142.8 10.8L 69.8 121.5L 87.2 131.4L 160.2 20.8ZM 87.2 131.4L 138 28.3L 120.8 17.9L 69.8 121.5ZM 120.8 17.9L 51.2 112.4L 68 123.3L 138 28.3ZM 68 123.3L 118.4 33.4L 101.9 22L 51.2 112.4ZM 101.9 22L 28.5 110.3L 45.6 121L 118.4 33.4ZM 45.6 121L 85 35.2L 67.8 24.7L 28.5 110.3ZM 67.8 24.7L 9.7 99L 27 109.4L 85 35.2ZM 27 109.4L 56.4 44.1L 39.9 32L 9.7 99ZM 39.9 32L 9.4 58.9L 26.7 70.3L 56.4 44.1ZM 26.7 70.3L 33.9 48.2L 14.9 42L 9.4 58.9Z" fill-rule="nonzero"></path></g></g></g><g id="g-root-3.g-3_fr_1usf00g168ct8v-fill" data-item-order="-259756" transform="translate(343.9200439453125, 124.8199462890625)"><g id="3.g-3_fr_1usf00g168ct8v-fill" stroke="none" fill="#e9ffb9"><g><path d="M 11 179.5L 30.4 195L 46.2 182.1L 23.5 163.9ZM 46.2 182.1L 21.5 134.2L 5.6 146.9L 30.4 195ZM 5.6 146.9L 73.7 204.7L 88.5 191L 21.5 134.2ZM 88.5 191L 24 101.2L 9.2 114.9L 73.7 204.7ZM 9.2 114.9L 121.3 210.1L 135.1 195.6L 24 101.2ZM 135.1 195.6L 20.2 73.2L 6.3 87.6L 121.3 210.1ZM 6.3 87.6L 166.5 225.8L 180.3 211.3L 20.2 73.2ZM 180.3 211.3L 26.1 50.4L 12.1 64.8L 166.5 225.8ZM 12.1 64.8L 173 209.7L 187 195.4L 26.1 50.4ZM 187 195.4L 39.8 37.9L 26.1 52.5L 173 209.7ZM 26.1 52.5L 180.8 177.8L 194.6 163.3L 39.8 37.9ZM 194.6 163.3L 71.7 25.6L 57.5 39.7L 180.8 177.8ZM 57.5 39.7L 186.4 156.7L 200.5 142.6L 71.7 25.6ZM 200.5 142.6L 90.4 21.1L 76.6 35.7L 186.4 156.7ZM 76.6 35.7L 189.3 127.9L 203.3 113.6L 90.4 21.1ZM 203.3 113.6L 121.4 18.1L 107.1 32.1L 189.3 127.9ZM 107.1 32.1L 183.5 99.9L 198.7 86.6L 121.4 18.1ZM 198.7 86.6L 151 16.1L 136 29.8L 183.5 99.9ZM 136 29.8L 181.3 66.7L 197.3 54L 151 16.1ZM 197.3 54L 175.9 10.3L 160.7 24.7L 181.3 66.7ZM 160.7 24.7L 172.2 31.1L 181.9 13.7L 175.9 10.3Z" fill-rule="nonzero"></path></g></g></g><g id="g-root-tx_streamli_1qd7yz4168cqvd-fill" data-item-order="0" transform="translate(32, 38)"><g id="tx_streamli_1qd7yz4168cqvd-fill" stroke="none" fill="#484848"><g><text style="font: bold 25px &quot;Shantell Sans&quot;, cursive; white-space: pre;" font-weight="bold" font-size="25px" font-family="'Shantell Sans', cursive"><tspan x="14.7" y="42" dominant-baseline="ideographic">Streamlined Knowledge Integration </tspan><tspan x="202.07" y="72" dominant-baseline="ideographic">Process</tspan></text></g></g></g><g id="g-root-tx_knowledg_18lxyhc168ct8i-fill" data-item-order="0" transform="translate(38, 314)"><g id="tx_knowledg_18lxyhc168ct8i-fill" stroke="none" fill="#484848"><g><text style="font: bold 20px &quot;Shantell Sans&quot;, cursive; white-space: pre;" font-weight="bold" font-size="20px" font-family="'Shantell Sans', cursive"><tspan x="14.83" y="36" dominant-baseline="ideographic">Knowledge </tspan><tspan x="16" y="60" dominant-baseline="ideographic">Preloading</tspan></text></g></g></g><g id="g-root-tx_inferenc_94mvo0168cqvg-fill" data-item-order="0" transform="translate(206, 350)"><g id="tx_inferenc_94mvo0168cqvg-fill" stroke="none" fill="#484848"><g><text style="font: bold 20px &quot;Shantell Sans&quot;, cursive; white-space: pre;" font-weight="bold" font-size="20px" font-family="'Shantell Sans', cursive"><tspan x="16.4" y="36" dominant-baseline="ideographic">Inference </tspan><tspan x="16.08" y="60" dominant-baseline="ideographic">Execution</tspan></text></g></g></g><g id="g-root-tx_document_vb3x74168crnn-fill" data-item-order="0" transform="translate(38, 374)"><g id="tx_document_vb3x74168crnn-fill" stroke="none" fill="#484848"><g><text style="font: 15px &quot;Shantell Sans&quot;, cursive; white-space: pre;" font-size="15px" font-family="'Shantell Sans', cursive"><tspan x="26.47" y="32.5" dominant-baseline="ideographic">Documents are </tspan><tspan x="13.68" y="50.5" dominant-baseline="ideographic">encoded into a KV </tspan><tspan x="59.57" y="68.5" dominant-baseline="ideographic">cache</tspan></text></g></g></g><g id="g-root-tx_cacheres_1d3mvv4168crgm-fill" data-item-order="0" transform="translate(374, 386)"><g id="tx_cacheres_1d3mvv4168crgm-fill" stroke="none" fill="#484848"><g><text style="font: bold 20px &quot;Shantell Sans&quot;, cursive; white-space: pre;" font-weight="bold" font-size="20px" font-family="'Shantell Sans', cursive"><tspan x="33.22" y="36" dominant-baseline="ideographic">Cache </tspan><tspan x="13.88" y="60" dominant-baseline="ideographic">Resetting</tspan></text></g></g></g><g id="g-root-tx_userquer_1uuaf9s168cs99-fill" data-item-order="0" transform="translate(206, 410)"><g id="tx_userquer_1uuaf9s168cs99-fill" stroke="none" fill="#484848"><g><text style="font: 15px &quot;Shantell Sans&quot;, cursive; white-space: pre;" font-size="15px" font-family="'Shantell Sans', cursive"><tspan x="14.38" y="32.5" dominant-baseline="ideographic">User queries are </tspan><tspan x="16.25" y="50.5" dominant-baseline="ideographic">processed using </tspan><tspan x="25.95" y="68.5" dominant-baseline="ideographic">the KV cache</tspan></text></g></g></g><g id="g-root-tx_thecache_zs6dhs168ct1j-fill" data-item-order="0" transform="translate(374, 446)"><g id="tx_thecache_zs6dhs168ct1j-fill" stroke="none" fill="#484848"><g><text style="font: 15px &quot;Shantell Sans&quot;, cursive; white-space: pre;" font-size="15px" font-family="'Shantell Sans', cursive"><tspan x="14.21" y="29.5" dominant-baseline="ideographic">The cache is reset </tspan><tspan x="19.39" y="47.5" dominant-baseline="ideographic">for new sessions</tspan></text></g></g></g><g id="g-root-1.g-1_fr_hyegnk168cr2b-stroke" data-item-order="-259764" transform="translate(26, 198.7230224609375)"><g id="1.g-1_fr_hyegnk168cr2b-stroke" fill="none" stroke-linecap="round" stroke-linejoin="round" stroke-miterlimit="4" stroke="#484848" stroke-width="4"><g><path d="M 166 41.6C 166.5 59 160.6 73.4 154 73.2C 153.7 73.1 153.4 73 153 73.1C 146.7 74 142 58.1 142 41.6C 141.9 25.1 147.1 12.5 152.9 10.1C 153.3 10 153.7 10.1 154 10C 160.2 7.5 166.3 24.1 166 41.6M 142 41.6C 142.6 25.1 147 12.3 152.9 10.1C 130.9 15.3 108.9 20.7 86.7 24.7C 60.9 29.3 35.8 37.2 10 41.6C 25.8 46.4 41.9 50.2 58.3 52.2C 73.8 54.1 88.8 59.4 104.2 62.3C 120.5 65.4 136.8 69 152.9 73C 147 70.9 140.7 58 142 41.6M 153 10.1M 153 73.1"></path><path d="M 166.0271 41.5752C 166.0271 59.0137 160.6423 73.1504 153.9999 73.1504C 153.675 73.1504 153.3532 73.1166 153.0349 73.0502C 152.9994 73.0428 152.9641 73.0351 152.9287 73.0269C 146.7881 71.6041 141.9727 58.066 141.9727 41.5752C 141.9727 25.0844 146.7881 11.5462 152.9288 10.1235C 152.9641 10.1153 152.9995 10.1075 153.0349 10.1002C 153.3532 10.0338 153.675 10 153.9999 10C 160.6423 10 166.0271 24.1367 166.0271 41.5752ZM 141.9727 41.5752C 141.9727 25.0844 146.7881 11.5462 152.9288 10.1235L 10 41.575L 152.9287 73.0269C 146.7881 71.6041 141.9727 58.066 141.9727 41.5752ZM 153.0349 10.1002L 152.9288 10.1235M 153.0349 73.0502L 152.9287 73.0269"></path></g></g></g><g id="g-root-2.g-2_fr_4mxya8168csn9-stroke" data-item-order="-259760" transform="translate(182.2030029296875, 161.7679443359375)"><g id="2.g-2_fr_4mxya8168csn9-stroke" fill="none" stroke-linecap="round" stroke-linejoin="round" stroke-miterlimit="4" stroke="#484848" stroke-width="4"><g><path d="M 21 41.7C 14.7 41.4 8.7 59.1 10 78.5C 11.3 98 14.8 114.5 21 115.3C 47.2 121.8 74.1 125 100 132.7C 121.2 139 143.4 141.1 164.7 146.9C 160.4 146.9 155.9 139.6 153.6 129C 150.8 116.3 148.1 98.5 147.8 78.5C 147.3 42 155.1 11 164.7 10.1C 142.6 15.6 120.1 19.4 97.9 24.8C 72.4 31.1 46.5 35.4 21 41.7M 165.8 10C 165.4 10 165.1 10 164.7 10.1C 155.9 14.1 148.5 42 147.8 78.5C 147.1 115 155.4 144.4 164.7 146.9C 165.1 147 165.4 147.1 165.8 147.1C 170.1 146.4 173.4 141 177.2 131.5C 174.6 117.9 172.1 99.3 171.7 78.5C 171.4 57.7 175 39.2 177.2 25.5C 174.3 15.8 169.9 8.8 165.8 10M 21.8 115.4C 21.5 115.3 21.3 115.4 21 115.3M 21.8 41.7C 21.5 41.7 21.2 41.6 21 41.7M 164.7 10.1M 164.7 146.9"></path><path d="M 20.9814 41.746C 14.8465 43.0557 10 59.0238 10 78.5298C 10 98.0357 14.8465 114.0039 20.9814 115.3136L 164.7335 146.9431C 155.2825 144.8489 147.7881 115.0201 147.7881 78.5303C 147.7881 42.0404 155.2825 12.2115 164.7336 10.1175L 20.9814 41.746ZM 165.7969 10C 165.4449 10 165.0953 10.0384 164.7483 10.1142L 164.7336 10.1175C 155.2825 12.2115 147.7881 42.0404 147.7881 78.5303C 147.7881 115.0201 155.2825 144.8489 164.7335 146.9431L 164.7483 146.9463C 165.0953 147.0221 165.4449 147.0605 165.7969 147.0605C 170.1299 147.0605 174.1055 141.2372 177.2128 131.5349C 173.8233 118.1173 171.7168 99.328 171.7168 78.5298C 171.7168 57.7319 173.8233 38.9428 177.2126 25.5252C 174.1054 15.8232 170.1298 10 165.7969 10ZM 21.7973 115.4004C 21.5231 115.4004 21.251 115.3712 20.9814 115.3136M 21.7973 41.6592C 21.5231 41.6592 21.251 41.6884 20.9814 41.746M 164.7483 10.1142C 164.7434 10.1153 164.7385 10.1164 164.7336 10.1175M 164.7483 146.9463C 164.7434 146.9452 164.7384 146.9441 164.7335 146.9431"></path></g></g></g><g id="g-root-3.g-3_fr_1usf00g168ct8v-stroke" data-item-order="-259756" transform="translate(343.9200439453125, 124.8199462890625)"><g id="3.g-3_fr_1usf00g168ct8v-stroke" fill="none" stroke-linecap="round" stroke-linejoin="round" stroke-miterlimit="4" stroke="#484848" stroke-width="4"><g><path d="M 196.1 115.5C 195.5 156.1 192.4 192 183.2 208.9C 179.2 216.3 176.1 221.1 172.1 220.9C 171.7 220.9 171.3 220.8 171 220.8C 166.3 221.4 161.8 213.8 158.9 203.6C 156.1 193.8 152.5 180.7 150.9 165.1C 149.4 150.2 148.4 133.4 148.1 115.5C 147.6 89.1 151 65.1 153.9 46.5C 157.3 25.3 163.9 10.3 170.8 10.2C 171.3 10 171.7 9.9 172.1 10C 176.1 10.5 180.3 14.1 183.2 22C 186.6 31.2 190.8 44.5 192.6 61C 194.4 76.9 195 95.6 196.1 115.5M 27.2 189.2C 43.9 192.1 60.1 197.2 76.7 200.1C 91.9 202.8 107 206.2 122 210.1C 138.1 214.2 154.5 217.2 170.8 220.8C 164.1 218.9 159 204.9 153.8 183.7C 149.3 165.5 147.4 141.5 148.1 115.5C 148.8 87 151.4 61.3 154.8 42.1C 158.2 23.5 164.4 11.1 170.8 10.2C 159.2 12.8 147.7 15.4 136 17.8C 124.8 20.1 113.7 23.4 102.3 25.2C 89 27.4 76.1 32.8 62.6 33.9C 50.6 35 39.3 41 27.2 41.7C 22.6 42.4 17 50 15.5 62.5C 13.9 76.2 10.3 94.7 10 115.5C 9.7 136.3 10.9 155.4 15.5 168.5C 19.7 180.3 23 187.4 27.2 189.2M 28.1 189.3C 27.8 189.3 27.5 189.2 27.2 189.2M 28.1 41.7C 27.8 41.7 27.5 41.6 27.2 41.7M 171 220.8M 171 10.1"></path><path d="M 196.0785 115.4653C 196.0785 156.0594 190.8598 191.2967 183.2101 208.9269C 179.8835 216.5936 176.0971 220.9307 172.0803 220.9307C 171.7023 220.9307 171.3264 220.9158 170.9527 220.8398C 170.8912 220.8273 170.8297 220.8138 170.7683 220.7993C 158.1246 217.8054 148.082 171.7777 148.082 115.4653C 148.082 59.1531 158.1245 13.1488 170.7682 10.1549C 170.8297 10.1404 170.8911 10.1269 170.9527 10.1144C 171.3264 10.0384 171.7023 10 172.0803 10C 176.111 10 179.8839 14.2967 183.2188 22.0131C 190.8497 39.6697 196.0785 74.9325 196.0785 115.4653ZM 27.2269 189.2171L 170.7683 220.7993C 158.1246 217.8054 148.082 171.7777 148.082 115.4653C 148.082 59.1531 158.1245 13.1488 170.7682 10.1549L 27.2269 41.737C 22.6736 42.6005 18.5603 50.3409 15.4958 62.4725C 12.1065 75.89 10 94.6791 10 115.4771C 10 136.2752 12.1065 155.0645 15.496 168.4821C 18.5605 180.6134 22.6737 188.3536 27.2269 189.2171ZM 28.08 189.2979C 27.794 189.2979 27.5096 189.2708 27.2269 189.2171M 28.08 41.6563C 27.794 41.6563 27.5096 41.6834 27.2269 41.737M 170.9527 220.8398L 170.7683 220.7993M 170.9527 10.1144L 170.7682 10.1549"></path></g></g></g><g id="g-root-tx_streamli_1qd7yz4168cqvd-stroke" data-item-order="0" transform="translate(32, 38)"></g><g id="g-root-tx_knowledg_18lxyhc168ct8i-stroke" data-item-order="0" transform="translate(38, 314)"></g><g id="g-root-tx_inferenc_94mvo0168cqvg-stroke" data-item-order="0" transform="translate(206, 350)"></g><g id="g-root-tx_document_vb3x74168crnn-stroke" data-item-order="0" transform="translate(38, 374)"></g><g id="g-root-tx_cacheres_1d3mvv4168crgm-stroke" data-item-order="0" transform="translate(374, 386)"></g><g id="g-root-tx_userquer_1uuaf9s168cs99-stroke" data-item-order="0" transform="translate(206, 410)"></g><g id="g-root-tx_thecache_zs6dhs168ct1j-stroke" data-item-order="0" transform="translate(374, 446)"></g></g></g></svg>