<?xml version="1.0" encoding="utf-8" standalone="yes"?>
<!DOCTYPE svg PUBLIC "-//W3C//DTD SVG 1.1//EN" "http://www.w3.org/Graphics/SVG/1.1/DTD/svg11.dtd">
<svg width="840" height="816" viewBox="0 0 840 816" style="fill:none;stroke:none;fill-rule:evenodd;clip-rule:evenodd;stroke-linecap:round;stroke-linejoin:round;stroke-miterlimit:1.5;" version="1.1" xmlns="http://www.w3.org/2000/svg" xmlns:xlink="http://www.w3.org/1999/xlink"><style class="text-font-style fontImports" data-font-family="Shantell Sans">@import url('https://fonts.googleapis.com/css2?family=Shantell+Sans:wght@300..800&amp;display=block');</style><g id="items" style="isolation: isolate"><g id="blend" style="mix-blend-mode: normal"><g id="g-root-4.g-4_fr_v9umelzalipw-fill" data-item-order="-598740" transform="translate(624, 266)"><g id="4.g-4_fr_v9umelzalipw-fill" stroke="none" fill="#ffd9d8"><g><path d="M 113.9 91.6L 109.6 88L 94.6 101.4L 101 106.9ZM 94.6 101.4L 116.4 133.9L 129.2 117.1L 109.6 88ZM 129.2 117.1L 80 100.5L 71.1 118.6L 116.4 133.9ZM 71.1 118.6L 130.8 158.5L 138.7 139.7L 80 100.5ZM 138.7 139.7L 55.1 122.2L 47.5 141.1L 130.8 158.5ZM 47.5 141.1L 116.8 184.2L 125.3 165.9L 55.1 122.2ZM 125.3 165.9L 29.9 135.6L 21.9 154L 116.8 184.2ZM 21.9 154L 108.4 202.8L 116 184.1L 29.9 135.6ZM 116 184.1L 32.3 161.4L 24.3 179.9L 108.4 202.8ZM 24.3 179.9L 94.8 223.4L 102.7 204.8L 32.3 161.4ZM 102.7 204.8L 54.4 192.2L 46.5 210.8L 94.8 223.4ZM 46.5 210.8L 90.3 237.4L 97.3 218.3L 54.4 192.2ZM 97.3 218.3L 52.3 211.1L 42.6 229.7L 90.3 237.4ZM 42.6 229.7L 70.4 258.3L 81.1 240.6L 52.3 211.1ZM 81.1 240.6L 58.3 233.9L 52.7 253.1L 70.4 258.3Z" fill-rule="nonzero"></path></g></g></g><g id="g-root-2.g-2_fr_1ut14h9zaljbi-fill" data-item-order="-598734" transform="translate(290.5, 434)"><g id="2.g-2_fr_1ut14h9zaljbi-fill" stroke="none" fill="#c8ffe5"><g><path d="M 228.4 93.5L 213.8 77.7L 198 90.1L 213.8 107.1ZM 198 90.1L 224.6 130.2L 238.9 115.5L 213.8 77.7ZM 238.9 115.5L 198.2 90.5L 184.6 105.6L 224.6 130.2ZM 184.6 105.6L 225.1 158.5L 239.6 144.6L 198.2 90.5ZM 239.6 144.6L 189.7 102.8L 173.9 115.6L 225.1 158.5ZM 173.9 115.6L 195.7 156.3L 210.8 142.1L 189.7 102.8ZM 210.8 142.1L 183.3 125L 161 134.7L 195.7 156.3ZM 161 134.7L 157.2 153.5L 177.9 151.9L 183.3 125ZM 177.9 151.9L 173.4 139.6L 154.6 146.5L 157.2 153.5Z" fill-rule="nonzero"></path></g></g><g id="2.g-2_fr_1ut14h9zaljbi-fill" stroke="none" fill="#c8ffe5"><g><path d="M 192.3 66.9L 191.4 66.2L 169.9 73.8L 178.9 81.9ZM 169.9 73.8L 166.5 95.8L 188.5 84.8L 191.4 66.2ZM 188.5 84.8L 141.1 59.8L 127.7 75.4L 166.5 95.8ZM 127.7 75.4L 156.9 115L 171.3 100.7L 141.1 59.8ZM 171.3 100.7L 101.2 48.4L 87.4 63.1L 156.9 115ZM 87.4 63.1L 150.5 137.6L 163.8 122.3L 101.2 48.4ZM 163.8 122.3L 63.3 59.2L 51.1 75.1L 150.5 137.6ZM 51.1 75.1L 140.4 157.6L 153 142L 63.3 59.2ZM 153 142L 51.7 70.4L 38.9 85.8L 140.4 157.6ZM 38.9 85.8L 129.2 173.4L 142.1 158.1L 51.7 70.4ZM 142.1 158.1L 44.1 87.5L 30.7 102.5L 129.2 173.4ZM 30.7 102.5L 117.3 196.6L 130.9 182L 44.1 87.5ZM 130.9 182L 63 127.7L 49.5 142.5L 117.3 196.6ZM 49.5 142.5L 113.3 209.3L 126.3 193.9L 63 127.7ZM 126.3 193.9L 71.3 157L 56.6 171.3L 113.3 209.3ZM 56.6 171.3L 94.3 231L 109.2 217.1L 71.3 157ZM 109.2 217.1L 77.7 193.8L 60.3 205.8L 94.3 231ZM 60.3 205.8L 69.5 238.9L 88.9 234.1L 77.7 193.8ZM 88.9 234.1L 86.2 221.8L 66.7 226L 69.5 238.9ZM 47.5 125.3L 29.4 107L 15.2 121.1L 33.3 139.4Z" fill-rule="nonzero"></path></g></g></g><g id="g-root-3.g-3_fr_1ly0lbhzalhq9-fill" data-item-order="-598728" transform="translate(480.5, 350)"><g id="3.g-3_fr_1ly0lbhzalhq9-fill" stroke="none" fill="#ffe4cb"><g><path d="M 173.8 113.3L 153.6 114.4L 149.4 134.7L 174.9 133.3ZM 149.4 134.7L 175.4 147.8L 178.2 126.8L 153.6 114.4ZM 178.2 126.8L 142.1 134.3L 141 155L 175.4 147.8ZM 141 155L 183.9 168.8L 184 147.8L 142.1 134.3ZM 184 147.8L 144.6 159.9L 146.8 180.2L 183.9 168.8ZM 146.8 180.2L 190.8 183.8L 187.5 163.4L 144.6 159.9ZM 187.5 163.4L 178.2 167.4L 186.1 185.8L 190.8 183.8Z" fill-rule="nonzero"></path></g></g><g id="3.g-3_fr_1ly0lbhzalhq9-fill" stroke="none" fill="#ffe4cb"><g><path d="M 152.7 105.9L 146.9 97.7L 127.3 104.8L 136.5 117.6ZM 127.3 104.8L 129 133.1L 148.4 121.4L 146.9 97.7ZM 148.4 121.4L 105 95.1L 91.3 110.1L 129 133.1ZM 91.3 110.1L 120.6 149.5L 134.6 134.8L 105 95.1ZM 134.6 134.8L 65.8 88.5L 51.9 103.3L 120.6 149.5ZM 51.9 103.3L 104.7 172.9L 118.6 158.2L 65.8 88.5ZM 118.6 158.2L 41.5 106.2L 28.6 121.6L 104.7 172.9ZM 28.6 121.6L 95.3 189.8L 108.4 174.6L 41.5 106.2ZM 108.4 174.6L 36.5 121.6L 23 136.5L 95.3 189.8ZM 23 136.5L 85.2 205.9L 97.7 189.9L 36.5 121.6ZM 97.7 189.9L 55.4 167.4L 43.1 183.5L 85.2 205.9ZM 43.1 183.5L 81.4 224.9L 93.8 208.8L 55.4 167.4ZM 93.8 208.8L 60.9 191.1L 45.4 205.5L 81.4 224.9ZM 45.4 205.5L 61 240.6L 76.8 226.8L 60.9 191.1ZM 76.8 226.8L 61 217.1L 50.5 234.2L 61 240.6Z" fill-rule="nonzero"></path></g></g></g><g id="g-root-1.g-1_fr_18mk2y5zaljb8-fill" data-item-order="-598722" transform="translate(56.766021728515625, 518)"><g id="1.g-1_fr_18mk2y5zaljb8-fill" stroke="none" fill="#dce9ff"><g><path d="M 245.099985 46.8L 239.199985 43.6L 216.399985 53.9L 235.499985 64.4ZM 216.399985 53.9L 212.599985 70.3L 234.299985 65.3L 239.199985 43.6ZM 234.299985 65.3L 215.499985 42.2L 196.399985 50.4L 212.599985 70.3ZM 196.399985 50.4L 200.999985 85.6L 220.099985 77.8L 215.499985 42.2ZM 220.099985 77.8L 188.599985 36L 170.099985 44.6L 200.999985 85.6ZM 170.099985 44.6L 184.599985 107.1L 203.199985 98.5L 188.599985 36ZM 203.199985 98.5L 152.299985 29.6L 134.999985 39.8L 184.599985 107.1ZM 134.999985 39.8L 176.999985 130.5L 193.999985 119.8L 152.299985 29.6ZM 193.999985 119.8L 122.799985 33.5L 105.999985 44.5L 176.999985 130.5ZM 105.999985 44.5L 161.499985 152.2L 178.299985 141L 122.799985 33.5ZM 178.299985 141L 103.199985 52.1L 87.199985 64.1L 161.499985 152.2ZM 87.199985 64.1L 155.799985 167.1L 171.799985 155L 103.199985 52.1ZM 171.799985 155L 94.799985 64.9L 78.399985 76.5L 155.799985 167.1ZM 78.399985 76.5L 145.899985 192.6L 162.499985 181.2L 94.799985 64.9ZM 162.499985 181.2L 81.299985 80.2L 64.699985 91.4L 145.899985 192.6ZM 64.699985 91.4L 134.399985 215.8L 150.899985 204.3L 81.299985 80.2ZM 150.899985 204.3L 69.999985 108.6L 53.799985 120.5L 134.399985 215.8ZM 53.799985 120.5L 129.599985 239.8L 145.699985 227.8L 69.999985 108.6ZM 145.699985 227.8L 57.199985 127.1L 40.899985 138.8L 129.599985 239.8ZM 40.899985 138.8L 116.099985 267.9L 132.599985 256.6L 57.199985 127.1ZM 132.599985 256.6L 44.599985 147.5L 27.599985 158.3L 116.099985 267.9ZM 27.599985 158.3L 75.399985 257.4L 92.699985 247.3L 44.599985 147.5ZM 92.699985 247.3L 40.599985 172.4L 22.499985 181.4L 75.399985 257.4ZM 22.499985 181.4L 42.599985 243.1L 60.399985 233.2L 40.599985 172.4ZM 60.399985 233.2L 36.099985 203.9L 13.999985 208.5L 42.599985 243.1ZM 13.999985 208.5L 6.899985 233.3L 30.899985 222.1L 36.099985 203.9ZM 30.899985 222.1L 17.299985 216L 9.199985 234.3L 6.899985 233.3ZM 134.099985 253.9L 121.999985 243.7L 109.099985 258.9L 121.099985 269.1Z" fill-rule="nonzero"></path></g></g><g id="1.g-1_fr_18mk2y5zaljb8-fill" stroke="none" fill="#dce9ff"><g><path d="M 297.699985 172L 303.699985 164.1L 291.399985 147.4L 281.899985 159.8ZM 291.399985 147.4L 268.199985 155.9L 285.999985 170.6L 303.699985 164.1ZM 285.999985 170.6L 293.799985 124.1L 274.799985 116.5L 268.199985 155.9ZM 274.799985 116.5L 248.399985 155.6L 267.599985 162.9L 293.799985 124.1ZM 267.599985 162.9L 278.899985 79.8L 259.399985 74.3L 248.399985 155.6ZM 259.399985 74.3L 225.799985 150.8L 244.899985 157.1L 278.899985 79.8ZM 244.899985 157.1L 263.999985 76.6L 244.999985 69.7L 225.799985 150.8ZM 244.999985 69.7L 206.699985 145.7L 225.499985 152.7L 263.999985 76.6ZM 225.499985 152.7L 239.099985 99.6L 220.699985 90.9L 206.699985 145.7ZM 220.699985 90.9L 183.299985 142L 201.399985 151.2L 239.099985 99.6ZM 201.399985 151.2L 205.799985 137.5L 186.699985 131.4L 183.299985 142Z" fill-rule="nonzero"></path></g></g></g><g id="g-root-tx_1lwr78eyh2879-fill" data-item-order="0" transform="translate(146, 38)"><g id="tx_1lwr78eyh2879-fill" stroke="none" fill="#484848"><g><text style="font: bold 25px &quot;Shantell Sans&quot;, cursive; white-space: pre;" font-weight="bold" font-size="25px" font-family="'Shantell Sans', cursive"><tspan x="13.79" y="72" dominant-baseline="ideographic">Multi-agents for software development</tspan></text></g></g></g><g id="g-root-tx_reviewan_1lz9jhpzaljwg-fill" data-item-order="0" transform="translate(650, 122)"><g id="tx_reviewan_1lz9jhpzaljwg-fill" stroke="none" fill="#484848"><g><text style="font: bold 20px &quot;Shantell Sans&quot;, cursive; white-space: pre;" font-weight="bold" font-size="20px" font-family="'Shantell Sans', cursive"><tspan x="11.77" y="36" dominant-baseline="ideographic">Review and </tspan><tspan x="25.42" y="60" dominant-baseline="ideographic">Selection</tspan></text></g></g></g><g id="g-root-tx_implemen_8wicx9zamxoq-fill" data-item-order="0" transform="translate(410, 170)"><g id="tx_implemen_8wicx9zamxoq-fill" stroke="none" fill="#484848"><g><text style="font: bold 20px &quot;Shantell Sans&quot;, cursive; white-space: pre;" font-weight="bold" font-size="20px" font-family="'Shantell Sans', cursive"><tspan x="16" y="36" dominant-baseline="ideographic">Implementation </tspan><tspan x="75.55" y="60" dominant-baseline="ideographic">Loop</tspan></text></g></g></g><g id="g-root-tx_areviewe_ziswktzamxop-fill" data-item-order="0" transform="translate(614, 182)"><g id="tx_areviewe_ziswktzamxop-fill" stroke="none" fill="#484848"><g><text style="font: 15px &quot;Shantell Sans&quot;, cursive; white-space: pre;" font-size="15px" font-family="'Shantell Sans', cursive"><tspan x="17.02" y="29.5" dominant-baseline="ideographic">A reviewer evaluates </tspan><tspan x="30.92" y="47.5" dominant-baseline="ideographic">the work of each </tspan><tspan x="20.55" y="65.5" dominant-baseline="ideographic">developer team and </tspan><tspan x="12.95" y="83.5" dominant-baseline="ideographic">selects the best parts.</tspan></text></g></g></g><g id="g-root-tx_juniorde_1q6yvhpzamwoz-fill" data-item-order="0" transform="translate(446, 230)"><g id="tx_juniorde_1q6yvhpzamwoz-fill" stroke="none" fill="#484848"><g><text style="font: 15px &quot;Shantell Sans&quot;, cursive; white-space: pre;" font-size="15px" font-family="'Shantell Sans', cursive"><tspan x="14.77" y="29.5" dominant-baseline="ideographic">Junior developers </tspan><tspan x="27.47" y="47.5" dominant-baseline="ideographic">implement the </tspan><tspan x="20.2" y="65.5" dominant-baseline="ideographic">algorithm, while </tspan><tspan x="21.22" y="83.5" dominant-baseline="ideographic">testers find and </tspan><tspan x="24.27" y="101.5" dominant-baseline="ideographic">report bugs for </tspan><tspan x="41.1" y="119.5" dominant-baseline="ideographic">correction.</tspan></text></g></g></g><g id="g-root-tx_algorith_140htylzamvws-fill" data-item-order="0" transform="translate(278, 266)"><g id="tx_algorith_140htylzamvws-fill" stroke="none" fill="#484848"><g><text style="font: bold 20px &quot;Shantell Sans&quot;, cursive; white-space: pre;" font-weight="bold" font-size="20px" font-family="'Shantell Sans', cursive"><tspan x="13.74" y="36" dominant-baseline="ideographic">Algorithm </tspan><tspan x="18.13" y="60" dominant-baseline="ideographic">Overview</tspan></text></g></g></g><g id="g-root-tx_ananalys_qp1bl9zamxhp-fill" data-item-order="0" transform="translate(230, 326)"><g id="tx_ananalys_qp1bl9zamxhp-fill" stroke="none" fill="#484848"><g><text style="font: 15px &quot;Shantell Sans&quot;, cursive; white-space: pre;" font-size="15px" font-family="'Shantell Sans', cursive"><tspan x="13.11" y="32.5" dominant-baseline="ideographic">An analyst constructs </tspan><tspan x="20.71" y="50.5" dominant-baseline="ideographic">a detailed overview </tspan><tspan x="33.19" y="68.5" dominant-baseline="ideographic">of the algorithm </tspan><tspan x="18.74" y="86.5" dominant-baseline="ideographic">based on the search </tspan><tspan x="66.79" y="104.5" dominant-baseline="ideographic">results.</tspan></text></g></g></g><g id="g-root-tx_websearc_8yds6lzamwp2-fill" data-item-order="0" transform="translate(74, 398)"><g id="tx_websearc_8yds6lzamwp2-fill" stroke="none" fill="#484848"><g><text style="font: bold 20px &quot;Shantell Sans&quot;, cursive; white-space: pre;" font-weight="bold" font-size="20px" font-family="'Shantell Sans', cursive"><tspan x="15.51" y="36" dominant-baseline="ideographic">Web Search</tspan></text></g></g></g><g id="g-root-tx_anagentc_1lt0smlzamvpr-fill" data-item-order="0" transform="translate(38, 434)"><g id="tx_anagentc_1lt0smlzamvpr-fill" stroke="none" fill="#484848"><g><text style="font: 15px &quot;Shantell Sans&quot;, cursive; white-space: pre;" font-size="15px" font-family="'Shantell Sans', cursive"><tspan x="16.63" y="29.5" dominant-baseline="ideographic">An agent conducts a </tspan><tspan x="13.68" y="47.5" dominant-baseline="ideographic">web search to gather </tspan><tspan x="24" y="65.5" dominant-baseline="ideographic">information on the </tspan><tspan x="43.7" y="83.5" dominant-baseline="ideographic">Hilbert curve.</tspan></text></g></g></g><g id="g-root-4.g-4_fr_v9umelzalipw-stroke" data-item-order="-598740" transform="translate(624, 266)"><g id="4.g-4_fr_v9umelzalipw-stroke" fill="none" stroke-linecap="round" stroke-linejoin="round" stroke-miterlimit="4" stroke="#484848" stroke-width="4"><g><path d="M 48.6 216.6C 49.4 194.5 35 179.6 15.7 185.7C 20.5 175.6 24.8 165.1 31.3 156.1C 24.3 156.6 17.5 153.6 10.6 153.3C 10 153.3 9.7 152.2 10.3 152.1C 26.2 140.2 44.7 132 60.6 120.2C 74.1 110.1 88.6 101.4 103.3 93.1C 103.6 92.8 104.2 92.9 104.3 93.3C 107.9 107.4 120 117.9 125.9 131.1C 132.1 145.1 142.4 157 148.7 170.9C 148.9 171.4 148.6 172 148 171.9C 139.4 170.6 130.4 171.3 122.2 168.4C 119.3 175.1 114.6 187.7 111.4 196.5C 102.7 220.3 101.2 224.3 86.6 242C 72 259.7 48.4 257.5 48.6 216.6M 84 10C 84.7 25.8 82.3 41.8 84 57.5C 85.7 73.3 84.1 89.2 84 105"></path><path d="M 48.6477 216.5509C 48.6477 194.48 35.1039 179.8498 15.6966 185.6627L 31.2738 156.1324L 10.5878 153.3116C 9.976 153.2281 9.7842 152.4375 10.2898 152.0831L 103.2932 93.1231C 103.6188 92.8948 104.0699 92.994 104.2698 93.3378L 148.696 170.8823C 148.9802 171.3713 148.5769 171.973 148.0166 171.896L 122.241 168.3518C 119.7519 175.2536 114.9093 187.8351 111.3793 196.5245C 101.8646 219.9452 100.2722 223.5162 86.6009 242.0081C 72.9295 260.5 48.6477 257.5 48.6477 216.5509ZM 84 10L 84 105"></path></g></g></g><g id="g-root-2.g-2_fr_1ut14h9zaljbi-stroke" data-item-order="-598734" transform="translate(290.5, 434)"><g id="2.g-2_fr_1ut14h9zaljbi-stroke" fill="none" stroke-linecap="round" stroke-linejoin="round" stroke-miterlimit="4" stroke="#484848" stroke-width="4"><g><path d="M 181.5 108.5C 175.9 116.7 167 137.9 161.3 148.1C 160.9 148.7 161.3 149.6 162 149.5C 176 147.8 189.8 154.8 203.9 155.8C 216.3 156.6 228.7 158.1 240.7 161.3C 241.8 161.6 242.6 159.7 241.7 159C 236.1 154.8 234.3 147.8 233 142C 231.4 134.9 231.4 122.5 230.5 114C 229.4 103.1 229.2 94 223 85C 216.2 78.6 207.2 78.2 200.5 84C 195.6 88.3 187.3 98.4 181.5 108.5"></path><path d="M 181.499338 108.5001C 176.394038 117.009 166.400538 137.6396 161.251138 148.0844C 160.953238 148.6885 161.333938 149.3993 161.999838 149.5L 240.726738 161.2786C 241.800038 161.4409 242.477438 159.7938 241.694937 159.0415C 236.618238 154.161 234.640438 147.7439 232.999338 142C 230.999338 135 230.499338 122.5147 230.499338 114C 230.499338 103 230.499338 93 222.999338 85.0001C 217.499338 77.5001 207.499338 78.4999 200.499338 84C 195.373238 88.0278 187.499338 98.5 181.499338 108.5001Z"></path></g></g><g id="2.g-2_fr_1ut14h9zaljbi-stroke" fill="none" stroke-linecap="round" stroke-linejoin="round" stroke-miterlimit="4" stroke="#484848" stroke-width="4"><g><path d="M 48.5 75C 38.4 86 10 131.5 10 131.5C 13.7 130.9 17.3 133.5 21 133C 21 133 32.1 130.6 39.5 135C 48.7 140.5 53.5 146.5 58.5 157C 64.5 169.6 65.3 207.9 67 220C 68.7 232.1 77.3 244.3 90 240C 100.2 236.5 110.9 216.6 117 208C 120.2 197.5 129 184.5 135.9 169.6C 143.1 153.9 152 137.8 159.1 123.8C 165.3 111.5 170.6 101.1 175 95.5C 187.8 79 193.9 70.6 198.5 69C 187.7 67.3 177 64 166 64C 138.8 59.7 82.6 51 71.5 56C 62.1 60.2 56.7 62.5 48.5 75M 33.5 10C 35.2 24.6 32.4 39.4 33.5 54C 34.5 68 33.8 82 33.5 96"></path><path d="M 48.5 75.000625C 39 86.500725 10 131.500525 10 131.500525L 21 133.000525C 21 133.000525 31.5 131.800625 39.5 135.000525C 49.5 139.000325 54.3252 146.145925 58.5 157.000425C 63.5 170.000425 65 208.000425 67 220.000425C 69 232.000425 77 243.500425 90 240.000425C 100.4 237.200425 112.3333 217.500425 117 208.000425C 131.3333 178.667125 162.3789 114.706425 175 95.500425C 186.5 78.000425 194 71.000525 198.5 69.000525L 166 64.000525C 138.6667 60.500525 83 52.000525 71.5 56.000625C 61.7869 59.379125 58 63.500525 48.5 75.000625ZM 33.5 10L 33.5 96"></path></g></g></g><g id="g-root-3.g-3_fr_1ly0lbhzalhq9-stroke" data-item-order="-598728" transform="translate(480.5, 350)"><g id="3.g-3_fr_1ly0lbhzalhq9-stroke" fill="none" stroke-linecap="round" stroke-linejoin="round" stroke-miterlimit="4" stroke="#484848" stroke-width="4"><g><path d="M 143.3 135.8C 138.5 141.9 130.9 158.3 127.5 166.7C 127.3 167.2 127.6 167.6 128.1 167.8C 147.2 175.6 169 174.2 189.5 177C 190.3 177.1 190.8 175.9 190.2 175.3C 186.5 171.2 185.5 166.1 183.5 162C 180.9 156.9 180.2 146.6 181.5 140.1C 183.2 131.7 180.1 124.8 175.7 117.5C 171.2 111.8 163.3 112.1 158.1 116.7C 154.3 120.1 148.1 128.1 143.3 135.8"></path><path d="M 143.28115 135.8368C 139.29875 142.4742 131.50325 158.5673 127.48635 166.7149C 127.25405 167.1861 127.55095 167.7406 128.07045 167.8191L 189.48205 177.0071C 190.31925 177.1337 190.84765 175.8489 190.23725 175.2621C 186.27715 171.455 184.73435 166.4493 183.45425 161.9687C 181.89405 156.5083 181.50405 146.769 181.50405 140.1271C 181.50405 131.5464 181.50405 123.7458 175.65365 117.5054C 171.36325 111.655 163.56275 112.4348 158.10225 116.7253C 154.10365 119.8671 147.96155 128.0361 143.28115 135.8368Z"></path></g></g><g id="3.g-3_fr_1ly0lbhzalhq9-stroke" fill="none" stroke-linecap="round" stroke-linejoin="round" stroke-miterlimit="4" stroke="#484848" stroke-width="4"><g><path d="M 39.5 107.7C 31.4 116 10 152.5 10 152.5C 10 152.5 21.7 145.9 32 151.8C 39.3 155.9 46.8 161.8 49.5 170.5C 52.7 180.9 51.5 211.6 54 220.8C 56.4 230 61.5 237.9 71.9 236.4C 80.2 235.2 87.8 217.9 93 211.5C 98.2 204.9 102.1 193.6 107.3 182.3C 112.1 171.5 118.4 160.4 123.4 150.3C 129.1 138.7 134.6 129 138.2 123.7C 147.5 110.2 153 104.6 156.5 103C 148.1 101.5 139.6 100.5 131.2 99.1C 120 97.2 102.4 95 87.1 93.5C 73.5 92.3 61.8 91.8 57.5 92.9C 49.7 94.9 47.9 99.6 39.5 107.7M 35.5 10C 35.1 44.3 36.8 78.7 35.5 113"></path><path d="M 39.5322 107.704606C 32.1217 116.675406 10 152.500506 10 152.500506C 10 152.500506 21 147.378006 32 151.777906C 39.8006 154.898006 46.2434 162.033306 49.5 170.500506C 53.4003 180.641206 52.4032 211.452406 53.9633 220.813106C 55.5234 230.173806 61.7639 239.144406 71.9047 236.414206C 80.0173 234.230106 89.326 218.862906 92.9663 211.452306C 104.1471 188.570606 128.3645 138.677506 138.2097 123.695706C 147.1804 110.044706 153.0308 104.584306 156.5411 103.024206L 131.1892 99.123906C 109.8675 96.393706 66.4443 89.763206 57.4736 92.883506C 49.8968 95.519006 46.9428 98.733806 39.5322 107.704606ZM 35.5 10L 35.5 113"></path></g></g></g><g id="g-root-1.g-1_fr_18mk2y5zaljb8-stroke" data-item-order="-598722" transform="translate(56.766021728515625, 518)"><g id="1.g-1_fr_18mk2y5zaljb8-stroke" fill="none" stroke-linecap="round" stroke-linejoin="round" stroke-miterlimit="4" stroke="#484848" stroke-width="4"><g><path d="M 56.199985 115C 37.799985 149.8 18.699985 204.8 9.999985 228.5C 9.899985 229.1 10.199985 229.6 10.699985 229.8C 22.999985 234.4 35.699985 237.9 48.599985 240.5C 60.899985 243 72.599985 247.7 84.799985 250.8C 98.399985 254.2 111.999985 257.6 125.299985 262.2C 125.799985 262.4 126.199985 262 126.499985 261.5C 131.199985 254.6 133.599985 236 138.699985 223.5C 142.399985 214.7 150.599985 192.1 160.599985 172.3C 168.999985 155.8 175.399985 139.6 178.699985 133.5C 185.999985 120.2 200.099985 91.5 219.199985 72C 234.499985 56.4 248.299985 50.4 254.699985 49C 235.899985 46 216.899985 43.9 197.899985 41.3C 180.999985 39 164.299985 35.7 147.199985 34.5C 147.199985 34.5 131.699985 34.3 121.699985 36C 111.699985 37.7 102.099985 47.7 95.699985 54.5C 90.499985 60.1 75.799985 80.2 56.199985 115"></path><path d="M 56.233385 114.998488C 37.686185 149.725188 17.938685 204.501388 10.049385 228.532988C 9.872285 229.072388 10.187885 229.627288 10.734085 229.781988L 125.276185 262.227488C 125.805685 262.377388 126.354985 262.077388 126.508885 261.549088C 128.840885 253.544788 134.125085 236.171288 138.733385 223.498588C 144.733385 206.998588 171.733385 146.998587 178.733385 133.498588C 185.733385 119.998588 201.233385 92.498588 219.233385 71.998588C 233.633385 55.598588 248.233385 50.165188 254.733385 48.998487L 147.233385 34.498688C 147.233385 34.498688 131.233385 32.498488 121.733385 35.998688C 112.233385 39.498788 102.233385 47.795388 95.733385 54.498487C 90.399985 59.998487 75.033385 79.798488 56.233385 114.998488Z"></path></g></g><g id="1.g-1_fr_18mk2y5zaljb8-stroke" fill="none" stroke-linecap="round" stroke-linejoin="round" stroke-miterlimit="4" stroke="#484848" stroke-width="4"><g><path d="M 222.199985 93C 213.099985 105.2 198.099985 131.8 189.699985 145C 189.399985 145.6 189.799985 146.3 190.399985 146.5C 201.999985 149.9 213.999985 152.3 226.099985 153.6C 237.599985 154.9 248.699985 158.6 260.199985 160.5C 272.899985 162.6 285.799985 164.7 298.299985 168.1C 299.399985 168.4 300.499985 165.5 299.899985 164.4C 297.299985 159.1 291.599985 154 289.699985 145.5C 286.599985 131.8 285.399985 117.1 284.199985 99C 283.399985 86.5 279.099985 75.6 273.699985 70C 267.799985 63.8 258.999985 65.1 249.699985 67C 241.399985 68.7 232.299985 79.3 222.199985 93M 75.199985 10C 74.799985 34 75.299985 58 75.199985 82"></path><path d="M 222.233348 92.999981C 213.013448 105.131381 197.458048 131.435281 189.733148 144.999981C 189.395748 145.592281 189.738148 146.339081 190.406448 146.473281L 298.280148 168.101281C 299.458848 168.337981 300.781548 165.287681 299.949648 164.419681C 295.865248 160.158281 292.219548 153.891681 289.733048 145.499981C 285.733048 132.000181 286.233048 116.999981 284.233048 98.999781C 282.851848 86.568881 279.233048 75.499981 273.733048 69.999981C 267.650248 63.917281 258.615948 63.669081 249.733148 66.999981C 241.733148 69.999881 232.537648 79.441881 222.233348 92.999981ZM 75.23436 10L 75.23436 82"></path></g></g></g><g id="g-root-tx_1lwr78eyh2879-stroke" data-item-order="0" transform="translate(146, 38)"></g><g id="g-root-tx_reviewan_1lz9jhpzaljwg-stroke" data-item-order="0" transform="translate(650, 122)"></g><g id="g-root-tx_implemen_8wicx9zamxoq-stroke" data-item-order="0" transform="translate(410, 170)"></g><g id="g-root-tx_areviewe_ziswktzamxop-stroke" data-item-order="0" transform="translate(614, 182)"></g><g id="g-root-tx_juniorde_1q6yvhpzamwoz-stroke" data-item-order="0" transform="translate(446, 230)"></g><g id="g-root-tx_algorith_140htylzamvws-stroke" data-item-order="0" transform="translate(278, 266)"></g><g id="g-root-tx_ananalys_qp1bl9zamxhp-stroke" data-item-order="0" transform="translate(230, 326)"></g><g id="g-root-tx_websearc_8yds6lzamwp2-stroke" data-item-order="0" transform="translate(74, 398)"></g><g id="g-root-tx_anagentc_1lt0smlzamvpr-stroke" data-item-order="0" transform="translate(38, 434)"></g></g></g></svg>